<?xml version="1.0" encoding="UTF-8" standalone="no"?>
<!-- Created with Inkscape (http://www.inkscape.org/) -->

<svg
   xmlns:dc="http://purl.org/dc/elements/1.1/"
   xmlns:cc="http://creativecommons.org/ns#"
   xmlns:rdf="http://www.w3.org/1999/02/22-rdf-syntax-ns#"
   xmlns:svg="http://www.w3.org/2000/svg"
   xmlns="http://www.w3.org/2000/svg"
   version="1.1"
   width="280.91251"
   height="278.29999"
   id="svg2"
   xml:space="preserve"><metadata
     id="metadata8"><rdf:RDF><cc:Work
         rdf:about=""><dc:format>image/svg+xml</dc:format><dc:type
           rdf:resource="http://purl.org/dc/dcmitype/StillImage" /><dc:title></dc:title></cc:Work></rdf:RDF></metadata><defs
     id="defs6" /><g
     transform="matrix(1.25,0,0,-1.25,0,278.3)"
     id="g10"><g
       transform="scale(0.1,0.1)"
       id="g12"><path
         d="m 2002.45,1508.89 c 0,0 -45.61,-13.58 -183.94,67.99 -118.35,111.78 -88.4,146.52 -88.4,146.52 131.18,155.62 111.23,231.14 95.53,262.85 -15.66,31.73 -114.07,77.03 -165.41,-33.24 -51.33,-110.26 -11.37,-223.56 -11.37,-223.56 0,0 -28.53,-48.35 -81.28,-81.57 -52.78,-33.25 -79.88,-30.22 -144.03,34.74 -64.17,64.95 -72.72,173.72 -77,187.31 -4.26,13.58 -18.52,277.97 -28.51,317.22 -9.99,39.28 -35.65,39.28 -51.34,39.28 -15.69,0 -19.96,-22.66 -19.96,-36.27 0,-13.59 -1.43,-70.98 -2.83,-102.69 -1.45,-31.73 21.36,-187.32 21.36,-187.32 -193.9,-66.47 -202.46,-179.77 -202.46,-179.77 0,0 0,-10.58 -35.66,-40.79 -35.654,-30.22 -51.33,9.08 -71.291,43.81 -19.945,34.76 -14.066,116.41 -27.004,139.93 -29.933,54.38 -55.625,4.55 -55.625,4.55 -50.531,28.15 -87.683,40.78 -118.414,37.92 -7.57,-0.69 -41.351,-13.22 -58.101,-19.26 -16.75,-6.04 -35.207,-17.54 -57.395,-42.67 -13.113,-14.86 -48.394,-123.28 -48.394,-123.28 0,0 -36.547,8.83 -86.696,50.77 -47.421,39.66 -60.253,55.52 -109.457,57.78 -24.453,1.14 -31.347,-4.9 -47.746,-6.79 -16.394,-1.89 -68.425,-54.39 -68.425,-54.39 0,0 -13.215,13.22 -68.829,46.83 -55.597,33.6 -84.398,29.57 -101.589,21.17 -27.8012,-13.61 -32.0863,-68 -32.0863,-68 l -1.7813,22.66 c 0,0 -2.1367,7.93 -7.4687,29.45 -5.3633,21.54 -19.2579,17 -47.0547,9.07 -27.81253,-7.93 -18.17972,-44.17 -18.17972,-44.17 0,0 27.42972,-167.31 33.14842,-245.86 5.6836,-78.56 49.9102,-52.88 62.7266,-40.79 12.8477,12.09 4.3007,114.81 4.3007,134.43 0,19.66 -21.4062,119.37 47.039,126.91 68.43,7.56 104.078,-54.4 109.797,-114.81 5.684,-60.44 72.715,-57.4 67.012,-18.14 -5.699,187.32 84.133,145.02 199.617,45.33 76.988,-110.29 98.391,-4.52 98.391,-4.52 126.898,-152.59 276.617,1.5 276.617,1.5 104.078,-163.16 198.168,-7.57 198.168,-7.57 108.4,-75.52 203.91,92.16 203.91,92.16 132.61,-353.48 369.32,-99.7 369.32,-99.7 75.57,-169.2 327.94,-199.39 357.89,-179.76 29.94,19.65 -27.1,34.74 -27.1,34.74 z M 844.652,1714.33 c -19.961,-28.67 -82.707,-99.7 -156.836,-12.08 -40.66,58.93 7.899,87.07 16.457,97.64 8.559,10.58 26.739,27.2 26.739,27.2 0,0 26.75,17.37 52.386,6.79 25.692,-10.58 52.692,-28.9 64.094,-40.99 11.418,-12.07 17.133,-49.83 -2.84,-78.56 z m 330.788,1.51 c -27.08,0 -57.01,-4.52 -41.33,18.14 15.66,22.65 42.77,51.35 64.16,57.39 21.39,6.04 44.19,-13.6 44.19,-13.6 0,0 -39.9,-61.93 -67.02,-61.93 z m 530.43,74.03 c -17.1,33.23 45.63,213.01 67.02,160.11 21.4,-52.84 -67.02,-160.11 -67.02,-160.11"
         id="path14"
         style="fill:#231f20;fill-opacity:1;fill-rule:nonzero;stroke:none" /><path
         d="m 962.238,949.215 c 0,0 -4.992,101.235 -31.379,104.245 -26.367,3.02 -59.898,-0.75 -89.125,-51.35 -29.214,-50.602 -43.461,-84.61 -33.5,-89.899 9.989,-5.277 60.606,71.012 72.024,96.699 11.402,25.64 1.398,35.49 21.375,37.75 19.976,2.27 34.207,-24.18 38.508,-34.75 4.273,-10.57 17.105,-52.113 19.949,-58.152 2.855,-6.028 8.558,-19.637 23.523,-33.981 14.985,-14.371 18.547,-49.101 34.937,-49.101 16.39,0 79.87,51.351 121.93,231.124 13.52,58.92 -5,57.4 -5,57.4 0,0 -77.02,-14.33 -109.8,-8.29 -32.797,6.02 -22.81,55.12 0,60.4 22.81,5.29 107.67,18.14 107.67,18.14 0,0 17.82,125.37 31.36,139.73 13.54,14.34 57.04,43.8 61.32,12.84 4.27,-30.98 -9.99,-123.13 -9.28,-135.95 0.73,-12.85 54.18,-10.59 74.14,-9.07 19.95,1.5 64.14,3.77 80.57,-0.77 16.38,-4.52 35.62,-8.3 35.62,-20.4 0,-12.08 -44.18,-36.25 -69.14,-38.5 -24.97,-2.28 -89.82,-3.03 -101.25,-3.78 -11.37,-0.78 -22.78,4.53 -22.8,-3.77 -0.02,-16.73 -4.98,-15.86 -2.14,-47.59 2.86,-31.71 14.28,-64.19 25.68,-83.09 11.39,-18.86 42.06,-66.459 86.97,-81.569 44.9,-15.105 74.14,-22.66 87.69,-16.621 13.55,6.043 75.57,19.653 92.69,36.274 17.1,16.589 31.35,39.246 44.19,27.926 12.83,-11.337 23.51,-43.051 9.96,-55.895 -13.51,-12.813 -93.38,-55.891 -124.73,-59.668 -31.4,-3.774 -107.68,-27.938 -198.22,48.351 -49.17,51.364 -61.28,77.792 -61.28,77.792 0,0 -52.05,-191.085 -127.63,-213.745 -75.578,-22.679 -99.09,64.207 -121.218,98.184 -22.071,33.992 -21.36,38.535 -21.36,38.535 0,0 -52.769,-108.766 -105.508,-120.863 -52.769,-12.094 -89.129,7.554 -47.777,156.34 41.367,148.799 127.594,132.189 134.75,132.189 7.133,0 106.926,6.81 119.773,-98.95 12.82,-105.739 -0.74,-92.892 -0.74,-95.919 0,-3.012 -39.201,18.871 -42.752,37.754"
         id="path16"
         style="fill:#231f20;fill-opacity:1;fill-rule:nonzero;stroke:none" /><path
         d="m 2246.59,18.332 c -3.56,3.7618 -171.8,48.3555 -265.2,167.688 -64.87,74.773 -54.9,114.039 -54.9,114.039 0,0 74.16,37.754 104.8,57.39 30.64,19.649 114.08,95.188 131.17,123.125 17.12,27.969 55.42,79.301 -11.4,157.852 -45.58,53.597 -107.66,33.246 -131.89,15.875 -24.24,-17.371 -126.9,-72.512 -160.4,-154.84 -33.52,-82.332 -32.81,-146.523 -32.81,-163.145 0,0 -84.14,-92.894 -121.2,-85.339 -37.08,7.535 -27.08,61.929 -30.65,79.3 -3.54,17.371 7.12,151.813 -89.13,160.879 -96.23,9.067 -153.27,-83.859 -161.82,-96.687 -8.55,-12.828 -8.55,-12.828 -8.55,-12.828 0,0 -37.08,82.328 -147.57,88.351 -70.59,8.321 -99.12,-88.351 -99.12,-88.351 0,0 -45.27,65.144 -58.42,86.089 -15.65,24.864 -27.76,36.942 -37.07,42.266 -8.59,4.93 -22.8,6.039 -41.39,-20.355 -0.09,-0.141 5.18,5.621 4.81,6.496 -3.56,8.285 -50.936,18.539 -70.37,22.926 -39.863,9.05 -58.484,6.07 -83.441,1.558 -24.953,-4.539 -63.789,-21.566 -96.949,-43.058 -25.633,-16.625 -96.242,-65.723 -96.242,-65.723 0,0 -2.86,-2.199 -6.332,-5.027 -2.774,10.273 -3.891,16.89 -4.379,17.89 -1.426,2.996 -21.375,44.543 -64.879,5.258 -27.09,-45.293 -41.32,-77.805 -59.176,-103.461 -17.824,-25.676 -17.09,-17.387 -35.637,11.313 -18.547,28.718 -78.418,132.96 -149.718,123.125 -71.301,-9.829 -94.122,-67.235 -99.821,-70.993 -5.703,-3.781 -8.543,50.61 -5.703,98.95 2.875,48.335 13.539,189.566 -0.703,249.23 C 248.254,797.824 219.703,862 219.703,862 c 0,0 -53.269,35.148 -53.449,-24.906 0,0 37.066,-104.242 37.805,-160.133 0.703,-55.891 7.097,-290.012 -2.153,-340.645 -9.265,-50.613 -11.402,-72.511 -18.531,-104.226 -7.133,-31.731 -19.078,-82.156 -16.41,-108.016 1.676,-16.215 9.277,-41.5467 24.953,-45.3084 15.687,-3.7929 37.094,0.7461 42.074,48.3364 4.981,47.586 11.403,129.148 47.055,185.039 35.648,55.906 69.855,76.289 86.238,80.847 16.442,4.508 42.07,-3.793 57.055,-27.218 14.969,-23.415 52.754,-73.25 68.461,-93.661 15.644,-20.402 32.762,-31.714 42.043,-37.754 9.265,-6.058 24.054,-6.226 34.941,0.766 6.953,4.445 67.383,131.02 67.383,131.02 0,0 -46.02,-94.016 -26.75,-134.051 23.762,-49.395 84.117,-50.629 122.609,-33.258 8.176,3.715 19.137,-1.5 32.075,3.793 111.222,-18.137 199.789,56.156 253.798,120.832 27.43,32.867 25.66,69.484 25.66,69.484 0,0 13.11,34.196 17.13,39.297 27.74,-23.254 73.71,-106.769 83.43,-132.179 13.55,-35.504 12.81,-46.086 27.09,-70.246 14.26,-24.161 12.83,-52.114 41.35,-63.446 22.96,-9.113 41.34,18.137 36.36,54.391 -5.01,36.258 -32.07,91.383 -11.42,145.012 20.67,53.64 110.51,30.976 124.06,-13.598 13.55,-44.559 2.83,-72.508 10.69,-89.133 7.84,-16.605 22.81,-42.281 47.06,-35.508 24.21,6.824 16.41,36.274 35.65,80.832 19.24,44.575 22.8,74.028 48.48,89.133 25.65,15.094 63.3,32.231 82.69,18.902 40.64,-27.968 15.73,-75.585 19.98,-126.902 2.4,-29.094 0,-74.043 47.75,-94.426 47.77,-20.382 62.75,-12.082 89.84,-0.75 27.09,11.332 50.66,33.2 70.57,51.364 17.17,15.656 35.64,38.519 54.21,-13.594 18.5,-52.113 86.25,-130.68 184.63,-175.9845 98.41,-45.3242 132.6,-53.62894 159.69,-55.890656 27.09,-2.281254 36.34,14.355456 32.79,18.117156 z M 648.953,268.301 c 2.477,22.301 15.309,34.398 15.309,34.398 0,0 25.324,-43.469 36.019,-52.535 10.696,-9.051 -54.242,-8.207 -51.328,18.137 z m 115.438,3.824 c -20.032,7.273 -23.598,25.031 -35.633,40.781 -11.449,14.996 -17.371,24.739 -24.235,38.504 94.786,81.016 140.571,114.883 183.04,114.508 41.675,-0.375 97.14,-10.254 100.339,-21.582 0.516,-1.781 0.723,-4.934 1.426,-10.582 C 964.715,388.43 950.66,329.512 907.672,305.336 842.914,268.91 745.551,262.324 764.391,272.125 z m 1133.269,78.504 c 0,0 -1,103.707 49.19,162.035 66.67,77.41 124.41,93.254 135.1,95.531 10.7,2.262 43.49,-4.898 42.43,-45.699 -1.08,-40.766 -18.9,-67.594 -38.51,-86.105 -25.71,-24.254 -44.55,-38.161 -67.35,-56.637 -33.22,-26.941 -120.86,-69.125 -120.86,-69.125"
         id="path18"
         style="fill:#231f20;fill-opacity:1;fill-rule:nonzero;stroke:none" /></g></g></svg>